<?xml version="1.0" standalone="no"?>
<!DOCTYPE svg PUBLIC "-//W3C//DTD SVG 20010904//EN"
 "http://www.w3.org/TR/2001/REC-SVG-20010904/DTD/svg10.dtd">
<svg version="1.0" xmlns="http://www.w3.org/2000/svg"
 width="1184.000000pt" height="358.000000pt" viewBox="0 0 1184.000000 358.000000"
 preserveAspectRatio="xMidYMid meet">

<g transform="translate(0.000000,358.000000) scale(0.100000,-0.100000)"
fill="#000000" stroke="none">
<path d="M1633 2678 c-27 -13 -31 -24 -58 -153 l-20 -100 -420 -5 c-231 -3
-425 -8 -431 -12 -21 -14 -36 -67 -30 -102 4 -20 18 -44 33 -56 25 -20 37 -20
574 -20 l549 0 14 -23 c20 -29 11 -62 -20 -76 -18 -8 -243 -11 -778 -11 -738
0 -753 0 -774 -20 -40 -38 -37 -124 6 -156 13 -11 137 -13 595 -14 479 0 579
-2 583 -14 5 -14 -21 -179 -31 -196 -4 -6 -161 -10 -421 -10 l-415 0 -24 -25
c-20 -19 -25 -34 -25 -74 0 -42 4 -53 26 -70 26 -21 35 -21 585 -21 l559 0 15
-24 c20 -30 7 -62 -31 -76 -14 -6 -149 -10 -300 -10 -292 0 -319 -4 -344 -49
-20 -39 -12 -91 19 -122 29 -29 30 -29 155 -29 70 0 126 -4 126 -9 0 -5 -9
-31 -21 -57 -48 -112 -17 -174 85 -174 l54 0 12 -47 c31 -127 97 -209 208
-261 51 -24 69 -27 167 -27 105 0 114 2 179 34 91 44 190 140 241 230 l40 71
460 -3 459 -2 8 -45 c19 -108 97 -207 206 -258 51 -24 68 -27 172 -27 110 0
118 2 185 34 90 44 200 151 244 239 l31 62 125 0 c186 0 171 -24 236 371 34
206 49 328 45 351 -8 46 -362 604 -418 660 -16 16 -38 18 -237 18 -121 0 -222
3 -224 8 -3 4 4 52 14 107 24 129 24 168 1 188 -17 16 -100 17 -993 16 -673 0
-981 -4 -996 -11z m2360 -623 c166 -260 224 -361 215 -372 -8 -10 -87 -13
-333 -13 l-322 0 -12 23 c-10 19 -7 53 23 207 23 117 42 190 53 202 15 17 31
18 177 16 l161 -3 38 -60z m-2000 -819 c40 -16 81 -64 97 -111 26 -78 -28
-190 -117 -241 -93 -55 -211 -26 -253 61 -79 164 106 361 273 291z m1760 0
c18 -7 47 -29 64 -49 78 -89 46 -229 -69 -300 -58 -36 -148 -41 -200 -10 -94
55 -114 194 -41 289 52 69 170 102 246 70z"/>
<path d="M8920 2503 c0 -3 -36 -200 -80 -437 -82 -437 -137 -738 -166 -901 -9
-49 -17 -96 -20 -103 -3 -10 31 -12 159 -10 l162 3 21 120 c31 167 123 666
184 995 28 151 54 290 57 308 l6 32 -162 0 c-88 0 -161 -3 -161 -7z"/>
<path d="M5305 2433 c-270 -16 -438 -141 -476 -358 -22 -130 8 -231 96 -320
48 -48 87 -75 192 -128 170 -87 216 -137 199 -217 -15 -78 -80 -120 -193 -128
-94 -6 -243 21 -323 59 -35 16 -64 28 -65 27 -10 -12 -83 -253 -79 -259 6 -11
118 -46 209 -65 111 -24 295 -29 393 -11 105 20 214 73 280 134 86 81 142 233
128 351 -19 158 -96 247 -311 354 -55 28 -115 61 -133 75 -62 47 -76 110 -36
171 53 81 298 84 432 6 24 -14 45 -24 46 -22 10 12 67 242 62 253 -8 21 -159
65 -245 71 -42 3 -87 6 -101 7 -14 2 -47 1 -75 0z"/>
<path d="M8241 2420 l-315 -5 -47 -260 c-26 -143 -81 -447 -123 -675 -42 -229
-76 -419 -76 -423 0 -4 76 -7 168 -7 l169 0 27 143 c14 78 37 198 49 267 l22
125 227 3 227 2 10 53 c14 73 31 169 31 179 0 4 -99 8 -219 8 -121 0 -222 3
-224 8 -4 6 33 228 48 290 l5 22 248 0 247 0 23 128 c12 70 22 133 22 140 0 9
-26 11 -102 10 -57 -2 -244 -5 -417 -8z"/>
<path d="M7232 2080 c-121 -17 -208 -57 -269 -123 -94 -101 -96 -270 -6 -361
24 -24 84 -61 160 -97 69 -34 130 -70 142 -85 30 -38 27 -85 -6 -118 -35 -35
-61 -41 -173 -40 -78 1 -111 6 -183 31 -56 19 -90 26 -92 19 -6 -24 -37 -192
-39 -206 -1 -10 24 -22 84 -38 116 -32 344 -41 443 -18 142 33 256 121 291
223 24 69 21 158 -8 219 -31 67 -83 109 -211 172 -58 29 -117 63 -131 77 -25
25 -31 63 -14 95 29 54 215 53 324 -2 27 -14 41 -16 46 -9 3 7 17 57 30 112
28 116 31 110 -70 133 -85 20 -238 27 -318 16z"/>
<path d="M9718 2080 c-161 -29 -286 -109 -383 -245 -90 -127 -127 -278 -106
-432 22 -152 85 -250 199 -311 83 -45 167 -62 302 -62 112 0 292 28 312 48 7
7 20 53 53 198 l5 21 -93 -24 c-191 -50 -345 -40 -421 28 -38 33 -70 103 -64
140 l3 24 331 -4 332 -4 17 77 c12 55 16 107 13 184 -3 91 -8 116 -33 170 -35
78 -104 143 -182 172 -63 24 -210 34 -285 20z m163 -225 c46 -24 71 -105 53
-172 -6 -23 -8 -23 -190 -23 -208 0 -201 -3 -160 79 38 75 89 112 181 134 28
7 84 -2 116 -18z"/>
<path d="M5765 2048 c3 -13 37 -178 76 -368 38 -190 84 -410 100 -490 16 -80
27 -154 25 -165 -10 -42 -67 -104 -118 -129 -59 -29 -95 -32 -160 -12 l-45 13
-26 -115 c-21 -89 -24 -118 -15 -123 48 -30 254 -36 339 -10 68 21 163 87 219
153 46 55 157 236 275 453 15 28 77 140 138 250 60 110 133 243 162 295 29 52
73 133 99 179 25 46 46 85 46 87 0 2 -74 4 -165 4 l-165 0 -170 -339 c-152
-305 -183 -361 -195 -350 -2 2 -13 74 -25 159 -11 85 -34 236 -50 335 -17 99
-30 183 -30 188 0 4 -72 7 -160 7 l-160 0 5 -22z"/>
<path d="M10340 2062 c0 -5 34 -87 76 -183 42 -96 87 -200 100 -233 l24 -59
-22 -30 c-12 -17 -56 -72 -97 -122 -42 -51 -123 -150 -180 -221 -58 -71 -111
-137 -119 -146 -14 -17 -5 -18 169 -18 l184 0 120 170 c66 94 124 169 129 167
9 -3 25 -44 90 -229 l38 -108 173 0 173 0 -62 123 c-34 67 -79 160 -101 207
-21 47 -49 106 -62 132 l-23 47 63 74 c34 41 89 108 122 148 33 41 100 122
149 182 l88 107 -184 0 -183 -1 -104 -154 c-58 -85 -108 -155 -111 -155 -4 0
-32 69 -63 153 l-55 152 -166 3 c-91 1 -166 -1 -166 -6z"/>
</g>
</svg>
